<svg
	width="160"
	height="160"
	viewBox="0 0 160 160"
	fill="none"
	xmlns="http://www.w3.org/2000/svg"
>
	<circle cx="80" cy="80" r="80" fill="#6817C5" />
	<path
		d="M79.4072 32.3594C79.7738 32.1471 80.2255 32.1471 80.5922 32.3594L121.007 55.7651C121.374 55.9774 121.6 56.3698 121.6 56.7945V103.606C121.6 104.031 121.374 104.423 121.007 104.635L80.5922 128.041C80.2255 128.253 79.7738 128.253 79.4072 128.041L38.9922 104.635C38.6255 104.423 38.3997 104.031 38.3997 103.606V56.7945C38.3997 56.3698 38.6255 55.9774 38.9922 55.7651L79.4072 32.3594Z"
		fill="white"
	/>
	<path
		fillRule="evenodd"
		clipRule="evenodd"
		d="M80.0005 32.2C80.2049 32.2001 80.4094 32.2532 80.5926 32.3593L121.008 55.7649C121.374 55.9772 121.6 56.3696 121.6 56.7943V103.606C121.6 104.03 121.374 104.423 121.008 104.635L80.5926 128.041C80.4094 128.147 80.2049 128.2 80.0005 128.2V32.2Z"
		fill="#D9D9D9"
	/>
	<g clipPath="url(#clip0_1078_1999)">
		<mask
			id="mask0_1078_1999"
			style="mask-type:alpha"
			maskUnits="userSpaceOnUse"
			x="56"
			y="56"
			width="48"
			height="49"
		>
			<path
				d="M80 104.2C93.2548 104.2 104 93.4548 104 80.2C104 66.9452 93.2548 56.2 80 56.2C66.7452 56.2 56 66.9452 56 80.2C56 93.4548 66.7452 104.2 80 104.2Z"
				fill="white"
			/>
		</mask>
		<g mask="url(#mask0_1078_1999)">
			<path
				fillRule="evenodd"
				clipRule="evenodd"
				d="M108.056 97.91C117.806 97.91 125.711 90.0054 125.711 80.2547C125.711 70.504 117.806 62.5995 108.056 62.5995C98.3052 62.5995 90.4006 70.504 90.4006 80.2547C90.4006 90.0054 98.3052 97.91 108.056 97.91ZM108.056 90.1858C113.54 90.1858 117.987 85.7395 117.987 80.2547C117.987 74.77 113.54 70.3237 108.056 70.3237C102.571 70.3237 98.1248 74.77 98.1248 80.2547C98.1248 85.7395 102.571 90.1858 108.056 90.1858Z"
				fill="#6817C5"
			/>
			<path
				fillRule="evenodd"
				clipRule="evenodd"
				d="M94.0558 73.9099C103.806 73.9099 111.711 66.0054 111.711 56.2547C111.711 46.504 103.806 38.5995 94.0558 38.5995C84.3051 38.5995 76.4006 46.504 76.4006 56.2547C76.4006 66.0054 84.3051 73.9099 94.0558 73.9099ZM94.0558 66.1857C99.5404 66.1857 103.987 61.7395 103.987 56.2547C103.987 50.7699 99.5404 46.3237 94.0558 46.3237C88.571 46.3237 84.1248 50.7699 84.1248 56.2547C84.1248 61.7395 88.571 66.1857 94.0558 66.1857Z"
				fill="#6817C5"
			/>
			<path
				fillRule="evenodd"
				clipRule="evenodd"
				d="M66.2072 73.8552C75.9578 73.8552 83.8624 65.9507 83.8624 56.2C83.8624 46.4493 75.9578 38.5449 66.2072 38.5449C56.4565 38.5449 48.552 46.4493 48.552 56.2C48.552 65.9507 56.4565 73.8552 66.2072 73.8552ZM66.2072 66.1311C71.6919 66.1311 76.1382 61.6848 76.1382 56.2C76.1382 50.7153 71.6919 46.269 66.2072 46.269C60.7224 46.269 56.2761 50.7153 56.2761 56.2C56.2761 61.6848 60.7224 66.1311 66.2072 66.1311Z"
				fill="#6817C5"
			/>
			<path
				fillRule="evenodd"
				clipRule="evenodd"
				d="M52.4552 97.9101C62.2059 97.9101 70.1104 90.0054 70.1104 80.2547C70.1104 70.504 62.2059 62.5995 52.4552 62.5995C42.7046 62.5995 34.8 70.504 34.8 80.2547C34.8 90.0054 42.7046 97.9101 52.4552 97.9101ZM52.4552 90.1857C57.9399 90.1857 62.3862 85.7395 62.3862 80.2547C62.3862 74.77 57.9399 70.3237 52.4552 70.3237C46.9704 70.3237 42.5241 74.77 42.5241 80.2547C42.5241 85.7395 46.9704 90.1857 52.4552 90.1857Z"
				fill="#6817C5"
			/>
			<path
				fillRule="evenodd"
				clipRule="evenodd"
				d="M66.2072 121.855C75.9578 121.855 83.8624 113.951 83.8624 104.2C83.8624 94.4493 75.9578 86.5449 66.2072 86.5449C56.4565 86.5449 48.552 94.4493 48.552 104.2C48.552 113.951 56.4565 121.855 66.2072 121.855ZM66.2072 114.131C71.6919 114.131 76.1382 109.685 76.1382 104.2C76.1382 98.7152 71.6919 94.269 66.2072 94.269C60.7224 94.269 56.2761 98.7152 56.2761 104.2C56.2761 109.685 60.7224 114.131 66.2072 114.131Z"
				fill="#6817C5"
			/>
			<path
				fillRule="evenodd"
				clipRule="evenodd"
				d="M93.7943 121.855C103.545 121.855 111.45 113.951 111.45 104.2C111.45 94.4493 103.545 86.5449 93.7943 86.5449C84.0436 86.5449 76.1392 94.4493 76.1392 104.2C76.1392 113.951 84.0436 121.855 93.7943 121.855ZM93.7943 114.131C99.2789 114.131 103.725 109.685 103.725 104.2C103.725 98.7152 99.2789 94.269 93.7943 94.269C88.3096 94.269 83.8633 98.7152 83.8633 104.2C83.8633 109.685 88.3096 114.131 93.7943 114.131Z"
				fill="#6817C5"
			/>
		</g>
		<circle cx="80" cy="80.2" r="4" fill="#6817C5" />
	</g>
	<rect
		x="65.1409"
		y="84.5801"
		width="7.7302"
		height="37.2122"
		transform="rotate(60.9936 65.1409 84.5801)"
		fill="#6817C5"
	/>
	<defs>
		<clipPath id="clip0_1078_1999">
			<rect
				width="48"
				height="48"
				fill="white"
				transform="translate(56 56.2)"
			/>
		</clipPath>
	</defs>
</svg>
