<?xml version="1.0" standalone="no"?>
<!DOCTYPE svg PUBLIC "-//W3C//DTD SVG 20010904//EN"
 "http://www.w3.org/TR/2001/REC-SVG-20010904/DTD/svg10.dtd">
<svg version="1.0" xmlns="http://www.w3.org/2000/svg"
 width="310.000000pt" height="310.000000pt" viewBox="0 0 310.000000 310.000000"
 preserveAspectRatio="xMidYMid meet">
<metadata>
Created by potrace 1.11, written by Peter Selinger 2001-2013
</metadata>
<g transform="translate(0.000000,310.000000) scale(0.100000,-0.100000)"
fill="#000000" stroke="none">
<path d="M1878 3054 c-2 -5 -4 -279 -4 -609 l1 -600 105 0 105 0 2 523 2 522
-97 77 c-53 42 -100 81 -103 86 -4 5 -8 5 -11 1z"/>
<path d="M1785 3022 c-58 -52 -137 -117 -146 -120 -5 -2 -9 -237 -9 -531 l0
-528 100 1 100 1 0 602 c0 332 -3 603 -7 603 -5 0 -22 -13 -38 -28z"/>
<path d="M1168 1755 c-2 -1 -28 -5 -58 -8 -173 -19 -390 -134 -515 -275 -135
-154 -212 -348 -216 -547 -4 -247 88 -471 265 -639 121 -115 263 -188 431
-221 70 -14 259 -14 320 -1 277 62 493 230 610 477 63 134 80 226 83 462 l4
207 -106 0 -106 0 0 -182 c-1 -210 -4 -238 -35 -331 -64 -189 -217 -340 -409
-407 -351 -120 -740 94 -832 459 -71 284 69 594 330 725 155 79 110 75 1024
76 449 0 817 2 819 4 2 2 -33 48 -77 103 l-80 101 -725 -1 c-398 0 -726 -1
-727 -2z"/>
<path d="M1170 1502 c-116 -13 -261 -77 -344 -152 -83 -76 -157 -206 -186
-328 -12 -51 -10 -193 4 -255 61 -272 321 -471 604 -463 110 4 167 19 265 69
130 66 238 191 287 329 30 86 33 110 34 316 l2 192 -103 0 -103 0 0 -173 c0
-189 -11 -257 -55 -332 -36 -60 -116 -132 -183 -163 -50 -24 -69 -27 -157 -27
-91 0 -106 3 -165 31 -118 56 -195 151 -226 279 -10 38 -6 145 6 182 39 118
132 222 237 265 l58 23 680 2 c374 1 707 3 740 3 l60 1 78 98 c42 55 77 101
77 103 0 4 -1572 4 -1610 0z"/>
</g>
</svg>
