<?xml version="1.0" encoding="utf-8"?>
<!-- Generator: Adobe Illustrator 27.0.0, SVG Export Plug-In . SVG Version: 6.00 Build 0)  -->
<svg version="1.1" id="Layer_1" xmlns="http://www.w3.org/2000/svg" xmlns:xlink="http://www.w3.org/1999/xlink" x="0px" y="0px"
	 viewBox="0 0 48 48" style="enable-background:new 0 0 48 48;" xml:space="preserve">
<style type="text/css">
	.st0{fill:#FFFFFF;}
</style>
<path class="st0" d="M7,40c-0.9,0-1.6-0.3-2.2-0.8S4,37.9,4,37v-7.6c1.2-0.3,2.3-0.9,3.1-1.9c0.8-1,1.2-2.1,1.2-3.5
	s-0.4-2.5-1.2-3.5c-0.8-1-1.8-1.6-3.1-1.9V11c0-0.9,0.3-1.6,0.8-2.1C5.4,8.3,6.1,8,7,8h34c0.9,0,1.6,0.3,2.2,0.9
	C43.7,9.4,44,10.1,44,11v7.6c-1.2,0.2-2.3,0.9-3.1,1.9s-1.2,2.2-1.2,3.5s0.4,2.5,1.2,3.5s1.8,1.6,3.1,1.9V37c0,0.9-0.3,1.6-0.8,2.2
	S41.9,40,41,40H7z M7,37h34v-5.4c-1.3-0.9-2.3-2-3.1-3.2c-0.8-1.3-1.2-2.7-1.2-4.3s0.4-3,1.2-4.3c0.8-1.3,1.8-2.4,3.1-3.2V11H7v5.5
	c1.3,0.9,2.3,1.9,3.1,3.2c0.8,1.3,1.2,2.7,1.2,4.3s-0.4,3-1.2,4.3c-0.8,1.3-1.8,2.4-3.1,3.2V37z M24,33.9c0.4,0,0.8-0.2,1.1-0.5
	c0.3-0.3,0.4-0.7,0.4-1.1c0-0.4-0.1-0.7-0.4-1c-0.3-0.3-0.7-0.5-1.1-0.5s-0.8,0.1-1,0.5c-0.3,0.3-0.5,0.6-0.5,1
	c0,0.4,0.1,0.8,0.5,1.1C23.2,33.7,23.6,33.9,24,33.9z M24,25.5c0.4,0,0.8-0.1,1.1-0.4c0.3-0.3,0.4-0.7,0.4-1.1s-0.1-0.8-0.4-1
	c-0.3-0.3-0.7-0.5-1.1-0.5s-0.8,0.1-1,0.5c-0.3,0.3-0.5,0.6-0.5,1s0.1,0.8,0.5,1.1C23.2,25.4,23.6,25.5,24,25.5z M24,17.1
	c0.4,0,0.8-0.1,1.1-0.4c0.3-0.3,0.4-0.7,0.4-1.1c0-0.4-0.1-0.8-0.4-1.1c-0.3-0.3-0.7-0.5-1.1-0.5s-0.8,0.2-1,0.5
	c-0.3,0.3-0.5,0.6-0.5,1.1c0,0.4,0.1,0.7,0.5,1.1C23.2,17,23.6,17.1,24,17.1z"/>
</svg>
