<?xml version="1.0" encoding="utf-8"?>
<!-- Generator: Adobe Illustrator 27.0.0, SVG Export Plug-In . SVG Version: 6.00 Build 0)  -->
<svg version="1.1" id="Layer_1" xmlns="http://www.w3.org/2000/svg" xmlns:xlink="http://www.w3.org/1999/xlink" x="0px" y="0px"
	 viewBox="0 0 48 48" style="enable-background:new 0 0 48 48;" xml:space="preserve">
<style type="text/css">
	.st0{fill:#ffffff;}
</style>
<path class="st0" d="M12.4,42c-0.4,0-0.8-0.1-1.1-0.4c-0.3-0.2-0.5-0.6-0.5-1v-4.2c-1-0.5-1.7-1.3-2.1-2.3C8.2,33.2,8,32.1,8,31
	V11.1c0-2.5,1.3-4.3,3.8-5.4S18.4,4,24,4c5.5,0,9.6,0.6,12.1,1.7c2.6,1.1,3.8,2.9,3.8,5.4V31c0,1.1-0.2,2.2-0.7,3.2
	c-0.5,1-1.2,1.8-2.1,2.3v4.2c0,0.4-0.2,0.7-0.5,1C36.4,41.9,36,42,35.5,42h-1c-0.5,0-0.9-0.1-1.2-0.4c-0.3-0.2-0.5-0.6-0.5-1v-2.8
	H15.1v2.8c0,0.4-0.2,0.7-0.5,1c-0.3,0.2-0.7,0.4-1.2,0.4H12.4z M24,9.8h13H11H24z M32.9,24.4H11h26H32.9z M11,21.4h26v-8.6H11
	L11,21.4z M16.3,32.4c0.8,0,1.4-0.3,2-0.8s0.8-1.2,0.8-2c0-0.8-0.3-1.4-0.8-2s-1.2-0.8-2-0.8c-0.8,0-1.4,0.3-1.9,0.8
	c-0.5,0.5-0.8,1.2-0.8,2s0.3,1.4,0.8,2C14.9,32.1,15.5,32.4,16.3,32.4z M31.7,32.4c0.8,0,1.4-0.3,1.9-0.8s0.8-1.2,0.8-2
	c0-0.8-0.3-1.4-0.8-2s-1.2-0.8-2-0.8c-0.8,0-1.4,0.3-2,0.8s-0.8,1.2-0.8,2s0.3,1.4,0.8,2C30.3,32.1,30.9,32.4,31.7,32.4z M11,9.8h26
	c-0.8-0.9-2.3-1.6-4.6-2.1S27.4,7,24,7c-3.9,0-6.9,0.2-9.1,0.7C12.9,8.1,11.6,8.8,11,9.8z M15.1,34.9h17.8c1.2,0,2.1-0.5,2.9-1.3
	c0.8-0.9,1.2-1.9,1.2-3.1v-6H11v6c0,1.2,0.4,2.2,1.2,3.1C13,34.4,13.9,34.9,15.1,34.9z"/>
</svg>
