<svg id="Layer_1" data-name="Layer 1" xmlns="http://www.w3.org/2000/svg" viewBox="0 0 424.53 340.28"><defs><style>.cls-1{fill:#0079c2;}</style></defs><title>charter-wifi</title><path class="cls-1" d="M28.58 115.75L0 86.69c43.59-43.1 95.85-71.14 156.61-81.6C259-12.52 348 15.73 424.53 86.93l-31.29 29.25C342.18 67 281.33 41.45 210.8 41.41S79.39 66.93 28.58 115.75z"/><path class="cls-1" d="M90.31 175.35L62 146.67c79.36-81.72 219.7-82 299.45 0L333 175.16c-63.71-64.05-175.35-65.26-242.69.19z"/><path class="cls-1" d="M150.43 237.37l-28.66-28.68c46-48.63 130.09-51.55 177.69-.32L270.64 237c-16.25-15.72-36.55-24.52-59.93-24.54-23.23-.02-43.42 8.7-60.28 24.91zM211.91 340.28a41.29 41.29 0 0 1-42-41.06c-.14-24.3 17.74-42.47 41.93-42.61a41.3 41.3 0 0 1 41.75 40.8c.25 24.3-17.59 42.59-41.68 42.87z"/></svg>