<svg id="Layer_1" data-name="Layer 1" xmlns="http://www.w3.org/2000/svg" viewBox="0 0 28 32"><defs><style>.cls-1{fill:#0079c2;}</style></defs><title>charter-clim</title><path class="cls-1" d="M26,14h0.5A1.5,1.5,0,0,0,28,12.5v-5A1.5,1.5,0,0,0,26.5,6H26V0H22V6H21.5A1.5,1.5,0,0,0,20,7.5v5A1.5,1.5,0,0,0,21.5,14H22V32h4V14ZM22,8h4v4H22V8ZM16.5,26A1.5,1.5,0,0,0,18,24.5v-5A1.5,1.5,0,0,0,16.5,18H16V0H12V18H11.5A1.5,1.5,0,0,0,10,19.5v5A1.5,1.5,0,0,0,11.5,26H12v6h4V26h0.5ZM12,20h4v4H12V20ZM6.5,14A1.5,1.5,0,0,0,8,12.5v-5A1.5,1.5,0,0,0,6.5,6H6V0H2V6H1.5A1.5,1.5,0,0,0,0,7.5v5A1.5,1.5,0,0,0,1.5,14H2V32H6V14H6.5ZM2,8H6v4H2V8Z"/></svg>