<svg id="Layer_1" data-name="Layer 1" xmlns="http://www.w3.org/2000/svg" viewBox="0 0 32.001 28"><defs><style>.cls-1{fill:#0079c2;}</style></defs><title>charter-pasy</title><path class="cls-1" d="M32,11.414C32,5.135,30.164.041,27.892,0H25.327A40.734,40.734,0,0,1,10.476,6.367a27.254,27.254,0,0,0-.438,5.047,27.348,27.348,0,0,0,.438,5.047,40.734,40.734,0,0,1,14.851,6.367h2.565C30.164,22.787,32,17.693,32,11.414ZM27.027,21.1a1.286,1.286,0,0,1-.773-0.486,6.463,6.463,0,0,1-1.1-1.979,21.091,21.091,0,0,1-1.127-7.223,21.1,21.1,0,0,1,1.127-7.223,6.463,6.463,0,0,1,1.1-1.979,1.286,1.286,0,0,1,.773-0.486,1.286,1.286,0,0,1,.773.486,6.463,6.463,0,0,1,1.1,1.979,21.1,21.1,0,0,1,1.127,7.223A21.1,21.1,0,0,1,28.9,18.637a6.463,6.463,0,0,1-1.1,1.979A1.291,1.291,0,0,1,27.027,21.1ZM7.87,11.414a30.651,30.651,0,0,1,.345-4.659,30.188,30.188,0,0,1-4.386.323h-2.1L0,10.037v2.755l1.733,2.959h2.1a30.209,30.209,0,0,1,4.386.323,30.651,30.651,0,0,1-.345-4.659h0Zm3.636,6.654-4-.766L10.064,27.35a0.834,0.834,0,0,0,1.146.583l3.7-1.483a0.853,0.853,0,0,0,.444-1.221Zm15.521-2.92a0.5,0.5,0,0,1-.3-0.187A2.484,2.484,0,0,1,26.3,14.2a8.138,8.138,0,0,1-.434-2.784A8.138,8.138,0,0,1,26.3,8.63a2.5,2.5,0,0,1,.424-0.763,0.331,0.331,0,0,1,.6,0,2.484,2.484,0,0,1,.424.763,8.134,8.134,0,0,1,.434,2.784,8.138,8.138,0,0,1-.434,2.784,2.5,2.5,0,0,1-.424.763A0.5,0.5,0,0,1,27.027,15.148Z"/></svg>