<svg id="Layer_1" data-name="Layer 1" xmlns="http://www.w3.org/2000/svg" viewBox="0 0 32 32"><defs><style>.cls-1{fill:#0079c2;}</style></defs><title>Vector Smart Object1</title><path class="cls-1" d="M8 3a3 3 0 1 1-3-3 3 3 0 0 1 3 3zM26 3a3 3 0 1 1-3-3 3 3 0 0 1 3 3zM8 8H2a2 2 0 0 0-2 2v10h2v12h2.5V20h1v12H8V20h2V10a2 2 0 0 0-2-2zM30.47 16L32 14.89l-4.17-6.44A1 1 0 0 0 27 8h-8a1 1 0 0 0-.83.45L14 14.89 15.53 16 19 11.51l1.2 2.8L16 22h3.83l.67 10h2V22h1v10h2l.67-10H30l-4.19-7.68 1.2-2.8z"/></svg>