<svg id="Layer_1" data-name="Layer 1" xmlns="http://www.w3.org/2000/svg" viewBox="0 0 32 32"><defs><style>.cls-1{fill:#0079c2;}</style></defs><title>charter-read</title><path class="cls-1" d="M16,26a2,2,0,0,1,2,2v2a2,2,0,0,1-4,0V28A2,2,0,0,1,16,26ZM16,6a2,2,0,0,1-2-2V2a2,2,0,0,1,4,0V4A2,2,0,0,1,16,6Zm14,8a2,2,0,0,1,0,4H28a2,2,0,0,1,0-4h2ZM6,16a2,2,0,0,1-2,2H2a2,2,0,0,1,0-4H4A2,2,0,0,1,6,16Zm19.9,7.071,1.414,1.414a2,2,0,0,1-2.828,2.828L23.071,25.9A2,2,0,0,1,25.9,23.071ZM6.1,8.929L4.687,7.515A2,2,0,0,1,7.515,4.687L8.929,6.1A2,2,0,1,1,6.1,8.929Zm19.8,0A2,2,0,0,1,23.071,6.1l1.414-1.414a2,2,0,0,1,2.828,2.828ZM6.1,23.071A2,2,0,1,1,8.929,25.9L7.515,27.313a2,2,0,0,1-2.828-2.828Z"/><path class="cls-1" d="M16,8a8,8,0,1,0,8,8A8,8,0,0,0,16,8Zm0,13a5,5,0,1,1,5-5A5,5,0,0,1,16,21Z"/></svg>