<?xml version="1.0" encoding="utf-8"?>
<!-- Generator: Adobe Illustrator 19.2.1, SVG Export Plug-In . SVG Version: 6.00 Build 0)  -->
<svg version="1.1" id="Layer_1" xmlns="http://www.w3.org/2000/svg" xmlns:xlink="http://www.w3.org/1999/xlink" x="0px" y="0px"
	 viewBox="0 0 63.5 79.5" style="enable-background:new 0 0 63.5 79.5;" xml:space="preserve">
<metadata><?xpacket begin="﻿" id="W5M0MpCehiHzreSzNTczkc9d"?>
<x:xmpmeta xmlns:x="adobe:ns:meta/" x:xmptk="Adobe XMP Core 5.6-c111 79.158366, 2015/09/25-01:12:00        ">
   <rdf:RDF xmlns:rdf="http://www.w3.org/1999/02/22-rdf-syntax-ns#">
      <rdf:Description rdf:about=""/>
   </rdf:RDF>
</x:xmpmeta>
                                                                                                    
                                                                                                    
                                                                                                    
                                                                                                    
                                                                                                    
                                                                                                    
                                                                                                    
                                                                                                    
                                                                                                    
                                                                                                    
                                                                                                    
                                                                                                    
                                                                                                    
                                                                                                    
                                                                                                    
                                                                                                    
                                                                                                    
                                                                                                    
                                                                                                    
                                                                                                    
                           
<?xpacket end="w"?></metadata>
<style type="text/css">
	.st0{fill:#0D2953;}
</style>
<g>
	<polygon class="st0" points="38,1.2 32.9,5.5 32.9,32.6 38,32.6 	"/>
	<polygon class="st0" points="44.8,32.6 44.8,5.5 39.2,1.1 39.2,32.6 	"/>
	<path class="st0" d="M39.5,57c0,9.3-7.5,16.8-16.8,16.8S5.9,66.3,5.9,57s7.5-16.8,16.8-16.8h40.2l-4.3-5.3H22.7
		C10.5,34.9,0.6,44.8,0.6,57s9.9,22.1,22.1,22.1S44.8,69.2,44.8,57v-7.9h-5.3V57L39.5,57z"/>
	<path class="st0" d="M7,57c0,8.6,7,15.6,15.6,15.6s15.6-7,15.6-15.6v-7.9H33V57c0,5.7-4.6,10.3-10.3,10.3
		c-5.7,0-10.3-4.6-10.3-10.3c0-5.7,4.6-10.3,10.3-10.3h35.9l4.3-5.3H22.6C14,41.4,7,48.4,7,57z"/>
</g>
</svg>
