<svg id="Layer_1" data-name="Layer 1" xmlns="http://www.w3.org/2000/svg" viewBox="0 0 590.5 78"><defs><style>.cls-1{fill:#e31837;}.cls-2{fill:#0079c1;}</style></defs><title>logo-jefferson-lines</title><polygon class="cls-1" points="385.8 0.1 380.6 4.4 380.6 31.5 385.8 31.5 385.8 0.1"/><polygon class="cls-2" points="392.5 31.5 392.5 4.4 387 0 387 31.5 392.5 31.5"/><path class="cls-1" d="M387.2,57.3a16.8,16.8,0,1,1-16.8-16.8h40.2l-4.3-5.3H370.4a22.1,22.1,0,1,0,22.1,22.1V49.4h-5.3v7.9h0Z" transform="translate(0 -1.4)"/><path class="cls-2" d="M354.8,57.3a15.6,15.6,0,1,0,31.2,0V49.4h-5.3v7.9A10.3,10.3,0,1,1,370.4,47h35.9l4.3-5.3H370.4A15.62,15.62,0,0,0,354.8,57.3Z" transform="translate(0 -1.4)"/><path class="cls-1" d="M11.8,65.7c-4.5,0-8.1-1.6-11.8-6.5l5.4-4.7c2.4,3.2,4.1,4.1,6.4,4.1,4,0,6.7-3,6.7-7.6V24.9h7.6V51C26,59.8,20.1,65.7,11.8,65.7Z" transform="translate(0 -1.4)"/><path class="cls-1" d="M35.7,65.2V24.9H60.8v6.8H43.2v9.7H60.1v6.8H43.2V58.3H60.8v6.8H35.7v0.1Z" transform="translate(0 -1.4)"/><path class="cls-1" d="M78.1,31.7v9.7H95v6.8H78.1v17H70.5V24.9H95.6v6.8H78.1Z" transform="translate(0 -1.4)"/><path class="cls-1" d="M111.6,31.7v9.7h16.9v6.8H111.6v17H104V24.9h25.1v6.8H111.6Z" transform="translate(0 -1.4)"/><path class="cls-1" d="M137.5,65.2V24.9h25.1v6.8H145v9.7h16.9v6.8H145V58.3h17.6v6.8H137.5v0.1Z" transform="translate(0 -1.4)"/><path class="cls-1" d="M197,65.2L180.4,44.5V42.9h6.7c3.9,0,6.6-2.2,6.6-5.6s-2.7-5.6-6.6-5.6h-7.6V65.2h-7.6V24.9h15.6c8.7,0,13.9,5.5,13.9,12.5,0,5.6-4.2,10.4-9.1,11l14,16.8H197Z" transform="translate(0 -1.4)"/><path class="cls-1" d="M222.8,65.7c-8.1,0-13.7-5.4-14.2-13l7.2-1.6c0.2,5.3,3.3,7.5,7.2,7.5s6.7-2.3,6.7-5.6c0-3.1-2.2-4.3-7.9-5.6-9-2.1-12.2-5.8-12.2-11.1,0-6.8,6.2-11.9,13.7-11.9s12.4,4.6,13.5,11.4l-7.2,1.6c-0.8-4.2-3.3-5.9-6.5-5.9s-5.8,1.9-5.8,4.5,2.1,3.3,7.3,4.7c9.4,2.3,12.8,6.2,12.8,12.4C237.5,60.2,231,65.7,222.8,65.7Z" transform="translate(0 -1.4)"/><path class="cls-1" d="M264.7,65.7a20.6,20.6,0,1,1,21-20.6A20.79,20.79,0,0,1,264.7,65.7Zm0-34.3A13.3,13.3,0,0,0,251.4,45,13.3,13.3,0,1,0,278,45,13.36,13.36,0,0,0,264.7,31.4Z" transform="translate(0 -1.4)"/><path class="cls-1" d="M324.6,66.5L300.7,40.2V65.1h-7.6V23.5H295l23.9,26.3V24.9h7.6V66.5h-1.9Z" transform="translate(0 -1.4)"/><path class="cls-2" d="M431.7,65.2V24.9h7.6V58.4h17.6v6.8H431.7Z" transform="translate(0 -1.4)"/><path class="cls-2" d="M465,65.2V24.9h7.6V65.2H465Z" transform="translate(0 -1.4)"/><path class="cls-2" d="M515.8,66.5L491.9,40.2v25h-7.6V23.5h1.9l23.9,26.3v-25h7.6V66.5h-1.9Z" transform="translate(0 -1.4)"/><path class="cls-2" d="M529.1,65.2V24.9h25.1v6.8H536.6v9.7h16.9v6.8H536.6V58.3h17.6v6.8H529.1v0.1Z" transform="translate(0 -1.4)"/><path class="cls-2" d="M575.9,65.7c-8.1,0-13.7-5.4-14.2-13l7.2-1.6c0.2,5.3,3.3,7.5,7.2,7.5s6.7-2.3,6.7-5.6c0-3.1-2.2-4.3-7.9-5.6-9-2.1-12.2-5.8-12.2-11.1,0-6.8,6.2-11.9,13.7-11.9s12.4,4.6,13.5,11.4l-7.2,1.6c-0.8-4.2-3.3-5.9-6.5-5.9s-5.8,1.9-5.8,4.5,2.1,3.3,7.3,4.7c9.4,2.3,12.8,6.2,12.8,12.4C590.5,60.2,584.1,65.7,575.9,65.7Z" transform="translate(0 -1.4)"/></svg>