<?xml version="1.0" encoding="UTF-8"?> <svg xmlns="http://www.w3.org/2000/svg" xmlns:xlink="http://www.w3.org/1999/xlink" version="1.1" id="Layer_1" x="0px" y="0px" viewBox="0 0 48 48" style="enable-background:new 0 0 48 48;" xml:space="preserve"> <style type="text/css"> .st0{fill:#002C57;} </style> <path class="st0" d="M7,42c-0.8,0-1.5-0.3-2.1-0.9C4.3,40.5,4,39.8,4,39V15c0-0.8,0.3-1.5,0.9-2.1C5.5,12.3,6.2,12,7,12h9V7 c0-0.8,0.3-1.5,0.9-2.1C17.5,4.3,18.2,4,19,4h10c0.8,0,1.5,0.3,2.1,0.9S32,6.2,32,7v5h9c0.8,0,1.5,0.3,2.1,0.9 c0.6,0.6,0.9,1.3,0.9,2.1v24c0,0.8-0.3,1.5-0.9,2.1C42.5,41.7,41.8,42,41,42H7z M7,39h34V15H7V39z M19,12h10V7H19V12z M7,39V15V39z"></path> </svg> 