<?xml version="1.0" encoding="UTF-8"?> <svg xmlns="http://www.w3.org/2000/svg" xmlns:xlink="http://www.w3.org/1999/xlink" version="1.1" id="Layer_1" x="0px" y="0px" viewBox="0 0 48 48" style="enable-background:new 0 0 48 48;" xml:space="preserve"> <style type="text/css"> .st0{fill:#042A58;} </style> <path class="st0" d="M12.4,42c-0.4,0-0.8-0.1-1.1-0.4s-0.5-0.6-0.5-1v-4.2c-1-0.5-1.7-1.3-2.1-2.3S8,32.1,8,30.9V11.1 c0-2.5,1.3-4.3,3.8-5.4S18.5,4,24.1,4c5.5,0,9.6,0.6,12.1,1.7c2.6,1.1,3.8,2.9,3.8,5.4v19.8c0,1.1-0.2,2.2-0.7,3.2s-1.2,1.8-2.1,2.3 v4.2c0,0.4-0.2,0.7-0.5,1S36,42,35.5,42h-0.9c-0.5,0-0.9-0.1-1.2-0.4c-0.3-0.2-0.5-0.6-0.5-1v-2.8H15.1v2.8c0,0.4-0.2,0.7-0.5,1 S13.9,42,13.4,42H12.4z M24.1,9.8H37H11H24.1z M32.9,24.4H11h26H32.9z M11,21.4h26v-8.6H11V21.4z M16.3,32.4c0.8,0,1.4-0.3,1.9-0.8 c0.5-0.5,0.8-1.2,0.8-2s-0.3-1.4-0.8-2s-1.2-0.8-1.9-0.8c-0.8,0-1.4,0.3-2,0.8s-0.8,1.2-0.8,2s0.3,1.4,0.8,2 C14.9,32.1,15.5,32.4,16.3,32.4z M31.7,32.4c0.8,0,1.4-0.3,2-0.8c0.5-0.5,0.8-1.2,0.8-2s-0.3-1.4-0.8-2c-0.5-0.5-1.2-0.8-2-0.8 s-1.4,0.3-2,0.8s-0.8,1.2-0.8,2s0.3,1.4,0.8,2C30.3,32.1,30.9,32.4,31.7,32.4z M11,9.8h26c-0.8-0.9-2.3-1.6-4.6-2S27.4,7,24.1,7 c-3.9,0-7,0.2-9.1,0.7S11.6,8.8,11,9.8z M15.1,34.9h17.8c1.2,0,2.1-0.5,2.9-1.4c0.8-0.9,1.2-1.9,1.2-3.1v-6H11v6 c0,1.2,0.4,2.2,1.2,3.1C13,34.5,13.9,34.9,15.1,34.9z"></path> </svg> 