<?xml version="1.0" encoding="UTF-8"?> <svg xmlns="http://www.w3.org/2000/svg" xmlns:xlink="http://www.w3.org/1999/xlink" version="1.1" id="Layer_1" x="0px" y="0px" viewBox="0 0 48 48" style="enable-background:new 0 0 48 48;" xml:space="preserve"> <style type="text/css"> .st0{fill:#002C57;} </style> <path class="st0" d="M8.2,42c-0.6,0-1.2-0.2-1.6-0.6c-0.4-0.4-0.6-1-0.6-1.6V33c0-0.5,0.2-1,0.5-1.4c0.3-0.4,0.8-0.6,1.2-0.8 l5.9-1.3c0.4-0.1,0.9-0.1,1.3,0.1c0.4,0.1,0.8,0.4,1.1,0.8l4.8,4.9c2.9-1.6,5.6-3.5,7.9-5.8s4.4-5,6.3-8.1l-5-5.1 c-0.3-0.3-0.4-0.6-0.5-1c-0.1-0.4-0.1-0.8,0-1.3l1.4-6.3c0.1-0.5,0.3-1,0.7-1.3C31.9,6.2,32.3,6,32.8,6h7c0.6,0,1.2,0.2,1.6,0.6 c0.4,0.4,0.6,1,0.6,1.6c0,4.1-1,8.1-3,12.1s-4.6,7.6-7.8,10.8S24.4,37,20.4,39S12.3,42,8.2,42z M36.5,18.6c0.8-2,1.5-3.8,1.9-5.3 c0.4-1.5,0.6-3,0.6-4.3h-5.3l-1.2,5.5L36.5,18.6z M18.1,36.8l-3.9-4.2L9,33.7V39c1.5-0.1,3.1-0.3,4.7-0.7 C15.2,37.9,16.7,37.4,18.1,36.8z"></path> </svg> 