<?xml version="1.0" encoding="UTF-8"?> <svg xmlns="http://www.w3.org/2000/svg" xmlns:xlink="http://www.w3.org/1999/xlink" version="1.1" id="Layer_1" x="0px" y="0px" viewBox="0 0 48 48" style="enable-background:new 0 0 48 48;" xml:space="preserve"> <style type="text/css"> .st0{fill:#042A58;} </style> <path class="st0" d="M13,42c-0.8,0-1.5-0.3-2.1-0.9S10,39.8,10,39V15.5c0-1,0.3-1.8,1-2.5c0.7-0.7,1.5-1,2.5-1H18V5.5 c0-0.5,0.2-0.8,0.6-1.1C19,4.1,19.5,4,20,4h8c0.5,0,1,0.1,1.4,0.4C29.8,4.7,30,5,30,5.5V12h5c0.8,0,1.5,0.3,2.1,0.9S38,14.2,38,15 v24c0,0.8-0.3,1.5-0.9,2.1S35.8,42,35,42c0,0.6-0.2,1-0.6,1.4C34,43.8,33.6,44,33,44s-1-0.2-1.4-0.6C31.2,43,31,42.6,31,42H17 c0,0.6-0.2,1-0.6,1.4C16,43.8,15.6,44,15,44s-1-0.2-1.4-0.6C13.2,43,13,42.6,13,42z M20,12h8V6h-8V12z M13,39h22V15H13V39z M16.5,36 h2V18h-2V36z M23,36h2V18h-2V36z M29.5,36h2V18h-2V36z M13,39V15V39z"></path> </svg> 