<?xml version="1.0" encoding="UTF-8"?> <svg xmlns="http://www.w3.org/2000/svg" xmlns:xlink="http://www.w3.org/1999/xlink" version="1.1" id="Layer_1" x="0px" y="0px" viewBox="0 0 48 48" style="enable-background:new 0 0 48 48;" xml:space="preserve"> <style type="text/css"> .st0{fill:#042A58;} </style> <path class="st0" d="M12.3,34.4c0.8,0,1.4-0.3,1.9-0.8c0.5-0.5,0.8-1.2,0.8-1.9c0-0.8-0.3-1.4-0.8-1.9c-0.5-0.5-1.2-0.8-1.9-0.8 c-0.8,0-1.4,0.3-1.9,0.8s-0.8,1.2-0.8,1.9s0.3,1.4,0.8,1.9C10.9,34.1,11.5,34.4,12.3,34.4z M27.7,34.4c0.8,0,1.4-0.3,1.9-0.8 c0.5-0.5,0.8-1.2,0.8-1.9c0-0.8-0.3-1.4-0.8-1.9c-0.5-0.5-1.2-0.8-1.9-0.8c-0.8,0-1.4,0.3-1.9,0.8c-0.5,0.5-0.8,1.2-0.8,1.9 s0.3,1.4,0.8,1.9C26.3,34.1,26.9,34.4,27.7,34.4z M8.4,44c-0.4,0-0.8-0.1-1.1-0.4s-0.5-0.6-0.5-1v-4.2c-1-0.6-1.7-1.4-2.1-2.4 C4.2,35.1,4,34,4,33V13.1c0-1.4,0.4-2.6,1.2-3.6S7.3,7.8,9,7.2s3.9-0.9,6.6-1.1C18.3,6,21.5,6,25.2,6.2c-0.2,0.5-0.4,1-0.6,1.5 c-0.2,0.5-0.3,1-0.4,1.5c-5-0.3-9-0.3-11.9,0.2S7.6,10.7,7,11.8h17.1c0,0.5,0,1,0.1,1.5s0.2,1,0.3,1.5H7v8.6h26 c0.3,0.1,0.8,0.2,1.4,0.4c0.6,0.1,1.1,0.1,1.6,0.1v9c0,1.1-0.2,2.1-0.7,3.1s-1.2,1.8-2.1,2.4v4.2c0,0.4-0.2,0.7-0.5,1S32,44,31.6,44 h-1c-0.5,0-0.9-0.1-1.2-0.4c-0.3-0.2-0.5-0.6-0.5-1v-2.8H11.1v2.8c0,0.4-0.2,0.7-0.5,1C10.3,43.9,9.9,44,9.4,44H8.4z M28.9,26.4H7 h26H28.9z M36.5,21c-2.6,0-4.9-0.9-6.7-2.8c-1.8-1.9-2.8-4.1-2.8-6.7c0-2.6,0.9-4.9,2.8-6.7C31.6,2.9,33.9,2,36.5,2 c2.6,0,4.9,0.9,6.7,2.8c1.8,1.9,2.8,4.1,2.8,6.7c0,2.6-0.9,4.9-2.8,6.7C41.4,20.1,39.1,21,36.5,21z M35.7,13.1h1.7V5.7h-1.7V13.1z M36.5,17.6c0.3,0,0.6-0.1,0.8-0.4c0.2-0.2,0.4-0.5,0.4-0.8s-0.1-0.6-0.4-0.8c-0.2-0.2-0.5-0.4-0.8-0.4c-0.3,0-0.6,0.1-0.8,0.4 c-0.2,0.2-0.4,0.5-0.4,0.8s0.1,0.6,0.4,0.8C36,17.5,36.2,17.6,36.5,17.6z M11.1,36.9h17.8c1.2,0,2.1-0.5,2.9-1.4 c0.8-0.9,1.2-1.9,1.2-3.1v-6H7v6c0,1.2,0.4,2.2,1.2,3.1C9,36.5,9.9,36.9,11.1,36.9z M24.1,11.8H7H24.1z"></path> </svg> 