<?xml version="1.0" encoding="UTF-8"?> <svg xmlns="http://www.w3.org/2000/svg" xmlns:xlink="http://www.w3.org/1999/xlink" version="1.1" id="Layer_1" x="0px" y="0px" viewBox="0 0 48 48" style="enable-background:new 0 0 48 48;" xml:space="preserve"> <style type="text/css"> .st0{fill:#042A58;} </style> <path class="st0" d="M31.4,33.7l2.3-2.3l-8-8V13.3h-3v11.3L31.4,33.7z M24,44c-2.7,0-5.3-0.5-7.8-1.6s-4.6-2.5-6.4-4.3 s-3.2-3.9-4.3-6.4S4,26.7,4,24c0-2.7,0.5-5.3,1.6-7.8s2.5-4.6,4.3-6.4s3.9-3.2,6.4-4.3S21.3,4,24,4c2.7,0,5.3,0.5,7.8,1.6 s4.6,2.5,6.4,4.3s3.2,3.9,4.3,6.4c1.1,2.4,1.6,5,1.6,7.8c0,2.7-0.5,5.3-1.6,7.8c-1,2.4-2.5,4.6-4.3,6.4s-3.9,3.2-6.4,4.3 S26.7,44,24,44z M24,41c4.7,0,8.7-1.7,12-5c3.3-3.3,5-7.3,5-12s-1.7-8.7-5-12c-3.3-3.3-7.3-5-12-5s-8.7,1.7-12,5s-5,7.3-5,12 s1.7,8.7,5,12S19.3,41,24,41z"></path> </svg> 