<svg width="143" height="203" viewBox="0 0 143 203" fill="none" xmlns="http://www.w3.org/2000/svg">
    <g opacity=".5" fill="#E1D1F3">
        <path d="M4.585 0C-77.041 0-134 24.36-134 46.108-134 67.86-77.04 91.97 4.585 91.97S143 67.857 143 46.108C143 24.358 86.21 0 4.585 0z"/>
        <path d="M143 73.27c-26.421 21.87-83.618 33.542-138.415 33.542S-107.577 95.14-134 73.27v54.827c.032 21.746 56.98 45.888 138.585 45.888 81.626 0 138.415-24.14 138.415-45.888V73.27z"/>
        <path d="M4.585 188.827c54.797 0 111.994-11.699 138.415-33.568v54.826C143 231.834 86.21 256 4.585 256-77.02 256-133.968 231.832-134 210.085v-54.826c26.423 21.869 83.788 33.568 138.585 33.568z"/>
    </g>
</svg>
