<svg width="21" height="16" viewBox="0 0 21 16" fill="none" xmlns="http://www.w3.org/2000/svg">
<path fill-rule="evenodd" clip-rule="evenodd" d="M1.67352 8.90424H16.4342L12.0009 13.1143C11.7775 13.3264 11.652 13.6142 11.652 13.9142C11.652 14.2143 11.7775 14.502 12.0009 14.7141C12.2243 14.9263 12.5272 15.0455 12.843 15.0455C13.1588 15.0455 13.4617 14.9263 13.685 14.7141L20.1515 8.57241C20.6162 8.13036 20.6162 7.41435 20.1515 6.97231L13.685 0.831333C13.4524 0.610361 13.148 0.5 12.8429 0.5C12.5377 0.5 12.2328 0.610109 12.0007 0.831082C11.7773 1.0432 11.6517 1.33096 11.6517 1.63101C11.6517 1.93106 11.7773 2.21881 12.0007 2.43093L16.4342 6.64148H1.67352C1.02259 6.65069 0.5 7.15452 0.5 7.77286C0.5 8.3912 1.02259 8.89503 1.67352 8.90424Z" fill="white"/>
</svg>
